<?xml version="1.0" encoding="UTF-8"?>
<svg version="1.1" xmlns="http://www.w3.org/2000/svg" width="136" height="136">
<path d="M0 0 C44.88 0 89.76 0 136 0 C136 44.88 136 89.76 136 136 C91.12 136 46.24 136 0 136 C0 91.12 0 46.24 0 0 Z " fill="#ED682E" transform="translate(0,0)"/>
<path d="M0 0 C0.99 0 1.98 0 3 0 C3 0.66 3 1.32 3 2 C3.5775 2.2475 4.155 2.495 4.75 2.75 C7.37223092 4.20679496 9.09253081 5.68378742 11 8 C11 9.32 11 10.64 11 12 C11.66 12 12.32 12 13 12 C14.94456928 16.13418591 15.37028021 19.769997 15.625 24.3125 C15.73714844 26.19388672 15.73714844 26.19388672 15.8515625 28.11328125 C15.90054688 29.06589844 15.94953125 30.01851562 16 31 C16.66 31 17.32 31 18 31 C20.125 32.5625 20.125 32.5625 22 35 C22.25 38.75 22.25 38.75 22 42 C23.0828125 41.8453125 23.0828125 41.8453125 24.1875 41.6875 C28.20646482 42.13405165 29.43735629 43.96529034 32 47 C35.07232178 51.02580096 35.47467633 53.96843091 35 59 C33 61 33 61 30.06640625 61.23046875 C28.91011719 61.21628906 27.75382812 61.20210937 26.5625 61.1875 C25.40878906 61.18105469 24.25507812 61.17460938 23.06640625 61.16796875 C20 61 20 61 17 60 C18.0936871 64.73931075 18.8947957 68.14916368 23 71 C27.06564647 71.50820581 29.46990897 70.94763643 33 69 C33.99 69 34.98 69 36 69 C36.3125 71.6875 36.3125 71.6875 36 75 C33.18299769 78.34994869 30.20774445 81.71187064 25.6953125 82.30078125 C16.86308877 82.34104975 16.86308877 82.34104975 13 79 C11.84420565 77.65432515 10.69933451 76.29923003 9.5625 74.9375 C6.58225099 71.45201564 4.67330142 69.73306689 0 69 C-5.44427834 68.68813463 -10.64653287 68.87295429 -16 70 C-16 70.66 -16 71.32 -16 72 C-17.5 73.625 -17.5 73.625 -19 75 C-18.0925 74.505 -17.185 74.01 -16.25 73.5 C-11.04026795 71.21201459 -5.574383 71.75285987 0 72 C0 72.66 0 73.32 0 74 C0.556875 74.061875 1.11375 74.12375 1.6875 74.1875 C5.48333226 75.52117079 8.21170413 78.42340827 10 82 C10.12419345 84.49253376 10.18515513 86.94490756 10.1875 89.4375 C10.19974609 90.11876953 10.21199219 90.80003906 10.22460938 91.50195312 C10.23555848 95.22829809 10.12005619 96.81991571 8 100 C9.65 99.67 11.3 99.34 13 99 C13.495 97.515 13.495 97.515 14 96 C16.80777919 93.84016985 18.14790181 94.01479018 21.75 94.375 C22.8225 94.58125 23.895 94.7875 25 95 C26.125 99.75 26.125 99.75 25 102 C24.34 102 23.68 102 23 102 C22.505 103.485 22.505 103.485 22 105 C17.89634719 108.66397572 13.34465657 110.08377316 8 111 C8 111.66 8 112.32 8 113 C5 114 2 115 -1 116 C-1.969375 116.35320312 -2.93875 116.70640625 -3.9375 117.0703125 C-17.12117343 121.07249908 -29.60176352 115.38159309 -41.25 109.5 C-44.98216179 107.28756318 -46.83384558 104.79077024 -49 101 C-49.804375 100.0925 -50.60875 99.185 -51.4375 98.25 C-57.54388314 91.10383025 -60.17783071 83.24719705 -60 74 C-60.66 74 -61.32 74 -62 74 C-62.62893546 62.97615901 -60.86737699 53.57345264 -58 43 C-57.34 43 -56.68 43 -56 43 C-55.87625 42.4225 -55.7525 41.845 -55.625 41.25 C-54.99351176 38.97664233 -54.11141809 37.0746471 -53 35 C-52.34 35 -51.68 35 -51 35 C-51 34.34 -51 33.68 -51 33 C-50.34 33 -49.68 33 -49 33 C-48.773125 32.4225 -48.54625 31.845 -48.3125 31.25 C-46.64018419 28.3831729 -44.72780269 26.86288964 -42 25 C-41.01 25 -40.02 25 -39 25 C-40.58921525 30.36095277 -42.18972938 35.70843973 -44 41 C-43.34 41 -42.68 41 -42 41 C-41.896875 40.319375 -41.79375 39.63875 -41.6875 38.9375 C-40.85274981 35.37084011 -39.50527246 32.33777806 -38 29 C-37.34 29 -36.68 29 -36 29 C-35.67 28.01 -35.34 27.02 -35 26 C-33.35666496 24.96210419 -31.68756133 23.96432076 -30 23 C-29.525625 22.505 -29.05125 22.01 -28.5625 21.5 C-25.51840681 18.57767054 -22.19844277 17 -18 17 C-18.33 17.598125 -18.66 18.19625 -19 18.8125 C-20.20787988 21.05386471 -20.20787988 21.05386471 -20 24 C-19.21625 23.01 -18.4325 22.02 -17.625 21 C-16.75875 20.01 -15.8925 19.02 -15 18 C-14.34 18 -13.68 18 -13 18 C-13 17.34 -13 16.68 -13 16 C-12.01 16 -11.02 16 -10 16 C-10 15.34 -10 14.68 -10 14 C-8.35 13.67 -6.7 13.34 -5 13 C-5 12.34 -5 11.68 -5 11 C-3.625 9.375 -3.625 9.375 -2 8 C-1.34 8 -0.68 8 0 8 C0 5.36 0 2.72 0 0 Z " fill="#FEFAF7" transform="translate(80,8)"/>
<path d="M0 0 C0 0.66 0 1.32 0 2 C-2.64 2.66 -5.28 3.32 -8 4 C-8 4.66 -8 5.32 -8 6 C-9.134375 6.433125 -10.26875 6.86625 -11.4375 7.3125 C-12.613125 7.869375 -13.78875 8.42625 -15 9 C-15.33 9.99 -15.66 10.98 -16 12 C-16.66 12 -17.32 12 -18 12 C-22.4588515 22.10673007 -21.42820355 33.2884734 -20 44 C-19.34 44 -18.68 44 -18 44 C-18 45.32 -18 46.64 -18 48 C-18.66 48 -19.32 48 -20 48 C-20 47.34 -20 46.68 -20 46 C-20.66 46 -21.32 46 -22 46 C-22.82011312 44.44148245 -23.63076213 42.87798284 -24.4375 41.3125 C-24.88996094 40.44238281 -25.34242187 39.57226562 -25.80859375 38.67578125 C-29.15862245 31.1519463 -28.44353845 23.45710245 -26.16015625 15.71484375 C-23.01321786 8.35079601 -16.47035637 4.09478215 -9.41015625 0.83203125 C-6.05265717 -0.32704055 -3.51320194 -0.38186978 0 0 Z " fill="#F1976B" transform="translate(64,62)"/>
<path d="M0 0 C0.66 0.33 1.32 0.66 2 1 C1.835 1.7425 1.67 2.485 1.5 3.25 C0.39646597 11.52650525 0.90010789 19.75080916 2 28 C2.66 28 3.32 28 4 28 C4 29.32 4 30.64 4 32 C3.34 32 2.68 32 2 32 C2 31.34 2 30.68 2 30 C1.34 30 0.68 30 0 30 C-0.82011312 28.44148245 -1.63076213 26.87798284 -2.4375 25.3125 C-2.88996094 24.44238281 -3.34242187 23.57226562 -3.80859375 22.67578125 C-5.97114401 17.81890608 -6.28848195 13.28883579 -6 8 C-5.34 6.68 -4.68 5.36 -4 4 C-4 8.95 -4 13.9 -4 19 C-3.34 19 -2.68 19 -2 19 C-2.02320313 18.13117188 -2.04640625 17.26234375 -2.0703125 16.3671875 C-2.08835938 15.21476562 -2.10640625 14.06234375 -2.125 12.875 C-2.14820313 11.73804687 -2.17140625 10.60109375 -2.1953125 9.4296875 C-1.99672109 5.94242233 -1.2524801 3.2446138 0 0 Z " fill="#F4AF8B" transform="translate(42,78)"/>
<path d="M0 0 C0.33 0 0.66 0 1 0 C1 6.6 1 13.2 1 20 C-9.05859375 19.4140625 -9.05859375 19.4140625 -12 19 C-12.33 18.34 -12.66 17.68 -13 17 C-11.865625 16.525625 -10.73125 16.05125 -9.5625 15.5625 C-6.24259834 14.36377917 -6.24259834 14.36377917 -5 13 C-4.76924918 11.65252916 -4.58846937 10.29622435 -4.4375 8.9375 C-4.293125 7.638125 -4.14875 6.33875 -4 5 C-3.34 5 -2.68 5 -2 5 C-1.855625 4.360625 -1.71125 3.72125 -1.5625 3.0625 C-1 1 -1 1 0 0 Z " fill="#F19768" transform="translate(92,42)"/>
<path d="M0 0 C0.99 1.485 0.99 1.485 2 3 C0.68 2.67 -0.64 2.34 -2 2 C-1.67 3.32 -1.34 4.64 -1 6 C-2.98 5.01 -4.96 4.02 -7 3 C-7 2.34 -7 1.68 -7 1 C-13.57791873 1.41044485 -19.74051886 1.86608597 -26 4 C-25.67 3.01 -25.34 2.02 -25 1 C-24.34 1 -23.68 1 -23 1 C-23 0.34 -23 -0.32 -23 -1 C-15.18279335 -4.29145543 -7.37009516 -4.14567853 0 0 Z " fill="#EF8450" transform="translate(87,79)"/>
<path d="M0 0 C0.66 0.33 1.32 0.66 2 1 C2.4140625 4.16015625 2.4140625 4.16015625 2.625 8.0625 C2.69976562 9.35285156 2.77453125 10.64320312 2.8515625 11.97265625 C2.90054688 12.97167969 2.94953125 13.97070312 3 15 C3.66 15 4.32 15 5 15 C7.125 16.5625 7.125 16.5625 9 19 C9.25 22.75 9.25 22.75 9 26 C10.65 26 12.3 26 14 26 C14.33 26.66 14.66 27.32 15 28 C12.69 27.67 10.38 27.34 8 27 C8 24.69 8 22.38 8 20 C6.35 19.67 4.7 19.34 3 19 C1.19320413 23.62369023 0.78160918 27.42528653 0.875 32.375 C0.89304687 33.62023438 0.91109375 34.86546875 0.9296875 36.1484375 C0.95289062 37.08945312 0.97609375 38.03046875 1 39 C-0.32 38.67 -1.64 38.34 -3 38 C-2.01 38 -1.02 38 0 38 C-0.165 37.49726562 -0.33 36.99453125 -0.5 36.4765625 C-1.18046888 33.1061151 -1.06551452 29.79485815 -1 26.375 C-0.71783102 21.54561415 -0.71783102 21.54561415 -2 17 C-1.34 17 -0.68 17 0 17 C0 11.39 0 5.78 0 0 Z " fill="#F8CEB6" transform="translate(93,24)"/>
<path d="M0 0 C0.66 0.33 1.32 0.66 2 1 C-0.36292656 3.52588702 -1.66462511 4.88820837 -5 6 C-5.33 6.66 -5.66 7.32 -6 8 C-6.66 8 -7.32 8 -8 8 C-8.28875 9.051875 -8.5775 10.10375 -8.875 11.1875 C-9.77225193 14.22818711 -10.76423419 17.08712344 -12 20 C-12.66 20 -13.32 20 -14 20 C-14.76128062 14.10007517 -11.55705755 9.1141151 -9 4 C-9.66 3.67 -10.32 3.34 -11 3 C-9.0625 2.4375 -9.0625 2.4375 -7 2 C-6.67 2.33 -6.34 2.66 -6 3 C-2.75016865 1.91215032 -2.75016865 1.91215032 0 0 Z " fill="#F08E5E" transform="translate(50,29)"/>
<path d="M0 0 C-1.58921525 5.36095277 -3.18972938 10.70843973 -5 16 C-4.34 16 -3.68 16 -3 16 C-3.66 17.32 -4.32 18.64 -5 20 C-5.33 20 -5.66 20 -6 20 C-6.02705729 18.22925083 -6.04642195 16.45838289 -6.0625 14.6875 C-6.07410156 13.70136719 -6.08570313 12.71523438 -6.09765625 11.69921875 C-6 9 -6 9 -5 6 C-6.65 6.66 -8.3 7.32 -10 8 C-8.18341255 3.37595922 -5.13109685 0 0 0 Z " fill="#F8D3BF" transform="translate(41,33)"/>
<path d="M0 0 C0.33 0 0.66 0 1 0 C0.855625 0.886875 0.71125 1.77375 0.5625 2.6875 C-0.26743906 8.42593581 -0.59145641 14.21954276 -1 20 C-1.66 20 -2.32 20 -3 20 C-3 14.72 -3 9.44 -3 4 C-2.34 4 -1.68 4 -1 4 C-0.67 2.68 -0.34 1.36 0 0 Z " fill="#ED6C33" transform="translate(41,77)"/>
<path d="M0 0 C0 0.66 0 1.32 0 2 C-2.64 2.66 -5.28 3.32 -8 4 C-8 4.66 -8 5.32 -8 6 C-9.32 6.33 -10.64 6.66 -12 7 C-12.33 6.34 -12.66 5.68 -13 5 C-13.66 4.67 -14.32 4.34 -15 4 C-9.77228537 0.95842058 -6.07328688 -0.50610724 0 0 Z " fill="#F5B794" transform="translate(64,62)"/>
<path d="M0 0 C0.90105469 0.19464844 1.80210938 0.38929687 2.73046875 0.58984375 C3.41753906 0.74582031 4.10460937 0.90179688 4.8125 1.0625 C4.8125 1.3925 4.8125 1.7225 4.8125 2.0625 C3.58273438 2.26166016 3.58273438 2.26166016 2.328125 2.46484375 C0.71164063 2.72974609 0.71164063 2.72974609 -0.9375 3 C-2.53851563 3.26103516 -2.53851563 3.26103516 -4.171875 3.52734375 C-6.55097593 3.94954171 -8.85665211 4.43452884 -11.1875 5.0625 C-10.8575 4.0725 -10.5275 3.0825 -10.1875 2.0625 C-9.5275 2.0625 -8.8675 2.0625 -8.1875 2.0625 C-8.1875 1.4025 -8.1875 0.7425 -8.1875 0.0625 C-4.80475734 -1.06508089 -3.41971777 -0.75500262 0 0 Z " fill="#F19767" transform="translate(72.1875,77.9375)"/>
<path d="M0 0 C0.33 0 0.66 0 1 0 C0.67 4.95 0.34 9.9 0 15 C-0.33 15 -0.66 15 -1 15 C-1.33 13.02 -1.66 11.04 -2 9 C-2.66 10.32 -3.32 11.64 -4 13 C-4 10.36 -4 7.72 -4 5 C-3.34 5 -2.68 5 -2 5 C-1.7834375 4.0409375 -1.7834375 4.0409375 -1.5625 3.0625 C-1 1 -1 1 0 0 Z " fill="#F1986B" transform="translate(92,42)"/>
<path d="M0 0 C0 3 0 3 -2.1171875 5.48046875 C-3.02726562 6.37378906 -3.93734375 7.26710938 -4.875 8.1875 C-5.77992187 9.08855469 -6.68484375 9.98960938 -7.6171875 10.91796875 C-10 13 -10 13 -12 13 C-11.67 11.68 -11.34 10.36 -11 9 C-10.34 9 -9.68 9 -9 9 C-8.67 8.01 -8.34 7.02 -8 6 C-6.35666496 4.96210419 -4.68756133 3.96432076 -3 3 C-1.24850835 1.41754725 -1.24850835 1.41754725 0 0 Z " fill="#FADFD0" transform="translate(53,28)"/>
<path d="M0 0 C0.33 0 0.66 0 1 0 C1.33 3.96 1.66 7.92 2 12 C0.02 12 -1.96 12 -4 12 C-2.68 8.04 -1.36 4.08 0 0 Z " fill="#ED6B31" transform="translate(90,48)"/>
<path d="M0 0 C1.65 0 3.3 0 5 0 C5.33 0.99 5.66 1.98 6 3 C4.59554165 5.2636564 2.8032087 7.0208685 1 9 C0.3125 7.25 0.3125 7.25 0 5 C1.4375 2.75 1.4375 2.75 3 1 C2.01 0.67 1.02 0.34 0 0 Z " fill="#F19B6C" transform="translate(59,24)"/>
<path d="M0 0 C0.99 0 1.98 0 3 0 C3 0.66 3 1.32 3 2 C3.99 2.33 4.98 2.66 6 3 C5.01 3.33 4.02 3.66 3 4 C3 4.66 3 5.32 3 6 C2.34 6 1.68 6 1 6 C0.67 6.66 0.34 7.32 0 8 C0 5.36 0 2.72 0 0 Z " fill="#F8CFB8" transform="translate(80,8)"/>
<path d="M0 0 C-0.66 0 -1.32 0 -2 0 C-2 0.66 -2 1.32 -2 2 C-3.8125 3.6875 -3.8125 3.6875 -6 5 C-6.99 4.67 -7.98 4.34 -9 4 C-8.25 2.0625 -8.25 2.0625 -7 0 C-4.04680182 -1.23843794 -3.12561472 -1.04187157 0 0 Z " fill="#F08A57" transform="translate(54,67)"/>
<path d="M0 0 C1 2 1 2 0.44140625 4.1640625 C0.15136719 4.97617187 -0.13867188 5.78828125 -0.4375 6.625 C-0.72496094 7.44226562 -1.01242188 8.25953125 -1.30859375 9.1015625 C-1.53675781 9.72804688 -1.76492187 10.35453125 -2 11 C-1.34 11 -0.68 11 0 11 C-0.66 12.32 -1.32 13.64 -2 15 C-2.33 15 -2.66 15 -3 15 C-3 11.37 -3 7.74 -3 4 C-2.34 4 -1.68 4 -1 4 C-0.67 2.68 -0.34 1.36 0 0 Z " fill="#F6C5A8" transform="translate(38,38)"/>
<path d="M0 0 C-1.8125 2.5 -1.8125 2.5 -4 5 C-4.99 5 -5.98 5 -7 5 C-7 3.68 -7 2.36 -7 1 C-4.53721199 -0.231394 -2.7204945 -0.07159196 0 0 Z " fill="#FBE8DC" transform="translate(65,82)"/>
<path d="M0 0 C3.875 1.75 3.875 1.75 5 4 C3.68 3.67 2.36 3.34 1 3 C1.33 4.32 1.66 5.64 2 7 C0.02 6.01 -1.96 5.02 -4 4 C-2.68 3.67 -1.36 3.34 0 3 C0 2.01 0 1.02 0 0 Z " fill="#F29D72" transform="translate(84,78)"/>
<path d="M0 0 C0.66 0.33 1.32 0.66 2 1 C1.67 1.99 1.34 2.98 1 4 C-2.5625 5.1875 -2.5625 5.1875 -6 6 C-5.67 5.01 -5.34 4.02 -5 3 C-4.34 3 -3.68 3 -3 3 C-3 2.34 -3 1.68 -3 1 C-2.01 0.67 -1.02 0.34 0 0 Z " fill="#F4B590" transform="translate(67,77)"/>
<path d="M0 0 C0 0.66 0 1.32 0 2 C-5.41538462 3.23076923 -5.41538462 3.23076923 -8.375 2.0625 C-8.91125 1.711875 -9.4475 1.36125 -10 1 C-6.52674819 -0.1577506 -3.63932552 -0.06866652 0 0 Z " fill="#F7CEB4" transform="translate(64,62)"/>
</svg>
