<svg width="48" height="48" viewBox="0 0 48 48" fill="none" xmlns="http://www.w3.org/2000/svg">
<path d="M16.65 0H31.375C44.825 0 48 3.2 48 16.65V31.375C48 44.825 44.8 48 31.35 48H16.625C3.175 48 0 44.8 0 31.35V16.625C0 3.2 3.2 0 16.65 0Z" fill="#6E50E1"/>
<path d="M29.4876 30.9488C29.6797 30.4101 30.1015 29.9847 30.6385 29.788L40.5198 26.1672C42.1696 25.5626 42.2137 23.2455 40.5882 22.5785L30.7985 18.5618C30.3109 18.3618 29.9267 17.9706 29.7354 17.4795L25.8285 7.4485C25.1906 5.81081 22.8722 5.81401 22.2388 7.45346L18.3854 17.4285C18.1877 17.9402 17.7811 18.3433 17.2677 18.5365L7.58936 22.179C5.92926 22.8038 5.92581 25.1509 7.58407 25.7805L17.4818 29.5388C17.9851 29.73 18.3854 30.1231 18.5856 30.623L22.5218 40.4535C23.181 42.0996 25.5266 42.0547 26.1223 40.3846L29.4876 30.9488Z" fill="#2ECD72"/>
<path d="M27.7348 24.0011C27.7348 26.0657 26.0625 27.7381 23.9978 27.7381C21.9331 27.7381 20.2607 26.0657 20.2607 24.0011C20.2607 21.9364 21.9331 20.264 23.9978 20.264C26.0625 20.264 27.7348 21.9364 27.7348 24.0011Z" fill="#6E50E1"/>
</svg>
