<?xml version="1.0" encoding="UTF-8"?>
<svg version="1.1" xmlns="http://www.w3.org/2000/svg" width="1200" height="630">
<path d="M0 0 C396 0 792 0 1200 0 C1200 207.9 1200 415.8 1200 630 C804 630 408 630 0 630 C0 422.1 0 214.2 0 0 Z " fill="#F7F7F7" transform="translate(0,0)"/>
<path d="M0 0 C0.98840529 -0.00297112 1.97681059 -0.00594224 2.99516755 -0.0090034 C6.29328059 -0.01764554 9.59135714 -0.01919488 12.88948059 -0.02069092 C15.26049883 -0.02532247 17.63151632 -0.03034759 20.00253296 -0.03573608 C27.10800352 -0.05020004 34.21346629 -0.0562423 41.31894895 -0.0611316 C44.67590368 -0.06371624 48.03285696 -0.06750585 51.38981056 -0.07125092 C62.5685508 -0.08344132 73.74728915 -0.09373889 84.92603588 -0.09712601 C85.64056925 -0.09734557 86.35510263 -0.09756514 87.09128853 -0.09779136 C87.80742639 -0.09800964 88.52356425 -0.09822791 89.26140326 -0.09845281 C90.71229883 -0.09889625 92.1631944 -0.09934282 93.61408997 -0.09979248 C94.69360618 -0.10012463 94.69360618 -0.10012463 95.79493079 -0.10046348 C107.42647857 -0.10440184 119.05796333 -0.12182741 130.68948682 -0.145152 C142.6668454 -0.16897351 154.64417253 -0.18133285 166.62155515 -0.18249393 C173.33190121 -0.18340501 180.04215286 -0.18933887 186.75247765 -0.20731354 C193.07677364 -0.22392425 199.40091527 -0.22588727 205.72522545 -0.21717453 C208.03043535 -0.21641091 210.335654 -0.22065622 212.64084244 -0.23063278 C244.63331464 -0.36082851 272.39330763 4.13794376 296.91609192 26.14044189 C297.57222473 26.72567627 298.22835754 27.31091064 298.90437317 27.91387939 C316.86222845 44.87628816 325.12518845 70.65752374 326.01149988 94.73196101 C326.04901206 97.35010665 326.05904626 99.96670189 326.05653381 102.58511353 C326.0609905 104.07156638 326.0609905 104.07156638 326.06553721 105.58804858 C326.07414209 108.87684344 326.07572545 112.16560155 326.07722473 115.45440674 C326.08185881 117.82586747 326.08688425 120.19732747 326.0922699 122.56878662 C326.1067022 129.65965589 326.11277137 136.75051732 326.11766541 143.84139866 C326.12025319 147.19386405 326.12404231 150.546328 326.12778473 153.89879227 C326.13996862 165.06478664 326.15026909 176.23077914 326.15365982 187.39678001 C326.15387939 188.10970802 326.15409895 188.82263604 326.15432517 189.55716792 C326.15454345 190.27166149 326.15476173 190.98615505 326.15498662 191.72229993 C326.15543006 193.16978606 326.15587663 194.61727218 326.15632629 196.0647583 C326.15654772 196.78273927 326.15676915 197.50072024 326.15699729 198.24045821 C326.16093827 209.85241568 326.1783748 221.46431015 326.20168582 233.07624333 C326.22550654 245.04013673 326.23786655 257.00399866 326.23902774 268.96791613 C326.2399386 275.66815718 326.24586763 282.36830367 326.26384735 289.06852341 C326.2804568 295.38054761 326.28242169 301.69241715 326.27370834 308.00445557 C326.27294476 310.30483035 326.27718962 312.6052139 326.2871666 314.90556717 C326.41663528 346.65073047 322.04212754 376.3540335 299.20661926 400.04351807 C276.4585793 422.76412137 247.13794594 428.49498107 216.05198669 428.54702759 C213.85694802 428.54119811 211.66191017 428.53505382 209.46687317 428.52862549 C207.09393575 428.5327022 204.72100024 428.53805018 202.34806824 428.54455566 C195.96789164 428.55810437 189.58786237 428.55298257 183.20768356 428.54341841 C179.20810518 428.53885602 175.20854747 428.53910679 171.20896912 428.54188919 C170.54068944 428.54234889 169.87240977 428.54280859 169.1838792 428.54328222 C167.82540376 428.54424159 166.46692833 428.54521424 165.10845292 428.54619999 C152.43188233 428.55471225 139.75537731 428.54498567 127.07881749 428.52879889 C116.25077984 428.51539952 105.42283876 428.51772879 94.59480286 428.53155518 C81.95715725 428.54768519 69.3195688 428.55388867 56.68191433 428.54471838 C55.32901447 428.54376295 53.9761146 428.54281983 52.62321472 428.54188919 C51.95792151 428.54142636 51.2926283 428.54096354 50.60717469 428.54048669 C45.96555448 428.53791893 41.32397256 428.54236987 36.68235779 428.54932785 C30.41122024 428.55807404 24.14026279 428.55183759 17.86914444 428.53464508 C15.58489402 428.53072073 13.30062812 428.53174349 11.01638412 428.53843307 C-21.04750773 428.62358685 -50.16221464 423.97225439 -74.08390808 401.14044189 C-74.97980652 400.28708252 -75.87570496 399.43372314 -76.79875183 398.55450439 C-99.87786886 374.87084964 -102.57034347 343.0035442 -102.45622253 311.61187744 C-102.45865735 309.23082826 -102.46238331 306.84978012 -102.46728516 304.46873474 C-102.47660077 298.06822584 -102.4673494 291.66787236 -102.45395303 285.26737571 C-102.44370229 279.21999681 -102.44626004 273.17263469 -102.44815554 267.12524972 C-102.45132961 255.14583152 -102.43976708 243.1664732 -102.42008972 231.18707275 C-102.40107105 219.6053485 -102.39400975 208.02369432 -102.39958191 196.44195557 C-102.40565916 183.77323328 -102.40542876 171.1045416 -102.39409608 158.43582183 C-102.392889 157.08160738 -102.39168301 155.72739293 -102.39047813 154.37317848 C-102.3898746 153.70718171 -102.38927106 153.04118494 -102.38864923 152.35500645 C-102.38479468 147.69602019 -102.38521473 143.03704565 -102.38706398 138.37805748 C-102.38895861 132.09465398 -102.38075328 125.81133927 -102.36500359 119.52795601 C-102.36079076 117.23354332 -102.35988973 114.93912157 -102.36269379 112.64470673 C-102.37547652 100.30659774 -102.05183806 88.33860245 -100.08390808 76.14044189 C-99.94939397 75.28991084 -99.81487986 74.43937979 -99.67628956 73.56307507 C-96.53846114 55.36989672 -85.95619338 38.88251621 -73.08390808 26.14044189 C-72.02429871 25.04796143 -72.02429871 25.04796143 -70.94328308 23.93341064 C-56.71580731 10.16751329 -37.26721399 3.76528617 -18.08390808 1.14044189 C-16.92522563 0.97195362 -15.76654318 0.80346535 -14.57274914 0.62987137 C-9.70974592 0.02776 -4.89482677 -0.00465173 0 0 Z " fill="#9FDC16" transform="translate(488.0839080810547,100.85955810546875)"/>
<path d="M0 0 C1.05054565 0.00640503 1.05054565 0.00640503 2.12231445 0.01293945 C11.26537736 0.3125905 15.97100604 4.21356715 22.125 10.5 C23.29785974 11.66439389 24.47246169 12.82703451 25.6484375 13.98828125 C37.51710913 25.75902907 37.51710913 25.75902907 42.45703125 31.61328125 C45.38125946 34.9210148 48.57924818 37.9608235 51.71875 41.0625 C54.37459753 43.75283906 56.82635432 46.56573525 59.28125 49.4375 C61.47296313 51.88924689 63.78567104 54.18885573 66.125 56.5 C69.05618191 59.39591958 71.88903174 62.30242571 74.5625 65.4375 C77.86711116 69.30459816 81.45345304 72.85777845 85.07128906 76.42675781 C88.35688358 79.68517995 91.42780642 83.05746023 94.421875 86.58203125 C97.00275866 89.4884851 99.80782879 92.15612913 102.62109375 94.8359375 C104.125 96.5 104.125 96.5 104.125 98.5 C108.60481145 94.84301106 112.43743245 91.10513572 116.17578125 86.703125 C118.39568212 84.19405869 120.74003502 81.85249193 123.125 79.5 C126.07683025 76.58373397 128.92888859 73.65394165 131.625 70.5 C135.10952107 66.42376781 138.90581981 62.70449127 142.71875 58.9375 C144.77949345 56.84999365 146.72015626 54.72830777 148.625 52.5 C152.10712976 48.42656519 155.90055426 44.70964882 159.7109375 40.9453125 C162.41251294 38.20876521 164.91578735 35.35020634 167.4140625 32.4296875 C169.8719496 29.65754999 172.52123604 27.09449311 175.16015625 24.49609375 C177.04730744 22.57892823 178.81185375 20.60424678 180.5625 18.5625 C195.52507562 1.3266986 195.52507562 1.3266986 205.8984375 0.02734375 C214.13002116 -0.43392984 221.41720896 0.32816111 228.125 5.5 C234.91485846 11.73083066 239.13736509 17.80052793 239.625 27.1875 C239.2627074 37.94893192 234.97763093 45.38961052 227.27612305 52.63696289 C226.79570557 53.08160889 226.31528809 53.52625488 225.8203125 53.984375 C223.58173403 56.0737149 221.59196276 58.16245006 219.625 60.5 C216.3426661 64.35043015 212.77245151 67.88145579 209.17407227 71.43139648 C205.92499393 74.65366448 202.90056137 77.99340645 199.93359375 81.47265625 C196.95216225 84.81469286 193.72406354 87.9081759 190.5390625 91.0546875 C187.83748706 93.79123479 185.33421265 96.64979366 182.8359375 99.5703125 C181.00700137 101.63308521 179.08919542 103.5659072 177.125 105.5 C174.60738304 107.97925327 172.22409278 110.49440184 169.9375 113.1875 C166.6807002 116.98335632 163.17888438 120.48623284 159.625 124 C155.50527118 128.07327662 151.54798709 132.18974788 147.796875 136.609375 C145.11600126 139.64101727 142.20030129 142.4324994 139.3203125 145.2734375 C137.29276119 147.32985075 135.38370439 149.43719983 133.5 151.625 C126.23360815 160.01058324 119.56079933 166.86627616 107.953125 167.73828125 C96.21780158 167.98169953 90.77000677 165.49220814 82.26953125 157.62890625 C79.72020508 155.0981544 77.38727319 152.44185361 75.0703125 149.69921875 C72.69898243 147.01837773 70.1734217 144.51019322 67.625 142 C63.88438362 138.31038344 60.3425859 134.52493886 56.93359375 130.52734375 C53.94971996 127.18256946 50.71880268 124.08664843 47.53125 120.9375 C44.87540247 118.24716094 42.42364568 115.43426475 39.96875 112.5625 C36.97149772 109.20964151 33.73340366 106.10106244 30.53515625 102.94140625 C27.85645468 100.22797273 25.37891882 97.39222977 22.90234375 94.49609375 C20.89231223 92.23867374 18.77667047 90.12264287 16.625 88 C13.85939592 85.27170593 11.21212969 82.51483166 8.6875 79.5625 C5.96880752 76.3896408 3.09748325 73.43661618 0.125 70.5 C-3.43878269 66.97915445 -6.7828308 63.37513767 -10.0234375 59.55859375 C-12.23581189 57.09884417 -14.61033812 54.8499492 -17 52.5625 C-21.35562736 48.27316834 -24.31395496 44.02709255 -26.875 38.5 C-27.205 37.84 -27.535 37.18 -27.875 36.5 C-28.66182099 27.41669944 -29.21952021 19.20528846 -23.6484375 11.515625 C-17.02114154 3.98327981 -10.25844434 -0.09515724 0 0 Z " fill="#FEFEFD" transform="translate(494.875,201.5)"/>
<path d="M0 0 C0.0701409 21.2274838 0.12301308 42.45494843 0.15543652 63.68252468 C0.17089272 73.53928442 0.19195839 83.39597208 0.22631836 93.25268555 C0.25625889 101.84572383 0.27558407 110.4387099 0.28226548 119.0317989 C0.28616986 123.58003109 0.29531967 128.12811391 0.31719017 132.67629814 C0.33762888 136.96165217 0.34381893 141.246796 0.33932304 145.53219414 C0.34014495 147.10066878 0.34606651 148.66915083 0.35761642 150.23758316 C0.4425815 162.37606985 -0.77080078 172.47632 -9 182 C-16.08220742 187.80995459 -23.64413815 189.55229581 -32.68359375 189.3671875 C-41.30865143 188.41223412 -46.76064729 183.84685593 -52.30859375 177.4765625 C-56.10725505 171.91455035 -57.37509116 167.32876742 -57.41992188 160.62207031 C-57.42839142 159.9200499 -57.43686096 159.21802948 -57.44558716 158.49473572 C-57.46884917 156.18901049 -57.46998073 153.88395845 -57.46875 151.578125 C-57.47586642 149.95212548 -57.48356754 148.32612842 -57.49182129 146.70013428 C-57.50524759 143.29074139 -57.50684699 139.88157983 -57.50097656 136.47216797 C-57.49628768 133.01185115 -57.50996194 129.55245554 -57.54199219 126.09228516 C-57.87452225 89.78736523 -57.87452225 89.78736523 -52 74 C-51.4203241 72.17195388 -50.84085447 70.34384232 -50.26171875 68.515625 C-49.74944359 67.08921191 -49.22513324 65.66704998 -48.6875 64.25 C-48.39536621 63.47325928 -48.10323242 62.69651855 -47.80224609 61.89624023 C-42.94226191 49.34535036 -36.50459591 38.45556944 -28 28 C-27.56252441 27.46101074 -27.12504883 26.92202148 -26.67431641 26.36669922 C-5.15719285 0 -5.15719285 0 0 0 Z " fill="#FDFEFB" transform="translate(734,251)"/>
<path d="M0 0 C1.27050079 0.93908326 2.53908961 1.88075357 3.80688477 2.82348633 C4.51353775 3.34759598 5.22019073 3.87170563 5.94825745 4.41169739 C8.82575949 6.63924002 11.39316195 9.09217059 13.9375 11.6875 C14.44909668 12.20658936 14.96069336 12.72567871 15.48779297 13.26049805 C37.50698906 35.89535114 55.92304605 67.89030458 56.17700195 100.22363281 C56.18685875 101.26886864 56.18685875 101.26886864 56.19691467 102.33522034 C56.21650627 104.62452327 56.2282783 106.91376107 56.23828125 109.203125 C56.24235678 109.99051811 56.2464323 110.77791122 56.25063133 111.58916473 C56.27143165 115.75686881 56.28575945 119.92454054 56.29516602 124.09228516 C56.30621939 128.37359346 56.340624 132.65438051 56.38033772 136.93550491 C56.40660648 140.24886983 56.41486687 143.56211234 56.41844749 146.8755722 C56.42328677 148.45268017 56.43482395 150.02978366 56.45348549 151.60678864 C56.5642907 161.59057916 56.07854371 170.10481236 50.2109375 178.5859375 C43.63954483 184.98954993 37.24193008 188.12084389 28 188.5 C18.71692674 188.11915597 12.32972665 184.98719648 5.7890625 178.48828125 C-0.52065406 169.71254009 -0.55493941 161.11024655 -0.45410156 150.64819336 C-0.45297178 149.00156685 -0.45360949 147.35493833 -0.45587158 145.70831299 C-0.45701457 141.26046192 -0.43357296 136.81304639 -0.40557575 132.36529613 C-0.3804925 127.70884992 -0.37821465 123.05239263 -0.37347412 118.39588928 C-0.36106464 109.58814213 -0.32827057 100.78059467 -0.28807616 91.97293526 C-0.24329522 81.94150672 -0.22135553 71.91006841 -0.20129442 61.87856472 C-0.15953607 41.25226522 -0.08922358 20.62614522 0 0 Z " fill="#FEFEFE" transform="translate(467,252)"/>
<path d="M0 0 C2.58096759 1.2904838 2.86816956 2.49045937 4.1328125 5.05859375 C6.95378081 10.28203507 10.58777667 14.01167496 14.875 18.0625 C19.60814099 22.61222059 24.13546839 27.20316747 28.41455078 32.18530273 C30.50070322 34.57310241 32.72889844 36.78866427 35 39 C38.55496184 42.51206637 41.93668721 46.06762019 45.09399414 49.94165039 C46.93218641 52.07309169 46.93218641 52.07309169 49.28466797 53.59521484 C52.81389909 56.2523913 55.50853843 58.73007786 56.47543335 63.19589233 C57.13817955 69.64254747 56.81854603 76.10015596 56.5625 82.5625 C56.51730344 84.54483096 56.47624794 86.52726092 56.43945312 88.50976562 C56.34079509 93.34230706 56.18580372 98.17005611 56 103 C54.11110495 100.16665743 53.45148593 98.424077 52.625 95.1953125 C47.31483693 75.28676868 40.08114091 57.09730811 27 41 C26.52272461 40.41138184 26.04544922 39.82276367 25.55371094 39.21630859 C18.38621638 30.46822973 10.81599751 22.01095831 2.234375 14.6171875 C-0.5258401 11.38406842 -0.5420575 9.86544655 -0.3125 5.6875 C-0.26738281 4.61886719 -0.22226562 3.55023438 -0.17578125 2.44921875 C-0.11777344 1.64097656 -0.05976563 0.83273438 0 0 Z " fill="#87C10D" transform="translate(467,239)"/>
<path d="M0 0 C0.99 0 1.98 0 3 0 C3.61826501 4.34558311 4.11988644 8.32095129 1.59960938 12.09960938 C-0.42902227 14.1157057 -2.53666697 15.9386667 -4.75 17.75 C-6.32392579 19.13375195 -7.89290175 20.52315307 -9.45703125 21.91796875 C-10.23256348 22.60294434 -11.0080957 23.28791992 -11.80712891 23.99365234 C-30.33203691 40.94285007 -41.69234108 63.33315009 -49 87 C-49.59909135 88.81418388 -50.20240509 90.62698686 -50.8125 92.4375 C-51.204375 93.613125 -51.59625 94.78875 -52 96 C-52.66 96 -53.32 96 -54 96 C-56.42829098 62.48157912 -56.42829098 62.48157912 -51.12890625 54.515625 C-48.38394032 51.34901736 -45.30238819 48.79029217 -41.87744141 46.38916016 C-37.29564243 42.9989864 -33.39301736 38.6136142 -29.75 34.25 C-26.81718526 30.84159369 -23.69902869 27.65627395 -20.5 24.5 C-16.11598478 20.16871476 -11.98364459 15.70070061 -8 11 C-7.443125 10.3709375 -6.88625 9.741875 -6.3125 9.09375 C-5.77625 8.4853125 -5.24 7.876875 -4.6875 7.25 C-4.21699219 6.71890625 -3.74648438 6.1878125 -3.26171875 5.640625 C-1.88857279 3.85511012 -0.94459594 2.03997245 0 0 Z " fill="#88C10E" transform="translate(731,241)"/>
<path d="M0 0 C0.33 0 0.66 0 1 0 C1 10.89 1 21.78 1 33 C1.66 33 2.32 33 3 33 C2.25 39.75 2.25 39.75 0 42 C0 28.14 0 14.28 0 0 Z " fill="#98D315" transform="translate(676,304)"/>
</svg>
